<svg width="25" height="24" viewBox="0 0 25 24" fill="none" xmlns="http://www.w3.org/2000/svg">
<g clip-path="url(#clip0_85_1057)">
<path fill-rule="evenodd" clip-rule="evenodd" d="M9.125 0C9.735 7.189 3.5 9.664 3.5 15.996C3.5 20.297 6.569 23.968 12.5 24C18.431 24.032 21.5 19.586 21.5 15.044C21.5 10.903 19.438 6.998 15.548 4.57C16.472 7.177 15.242 9.558 14.047 10.378C14.117 7.041 12.922 2.089 9.125 0ZM13.836 13C17.591 16.989 15.285 22 12.269 22C10.434 22 9.49 20.735 9.5 19.423C9.519 16.99 12.237 16.988 13.836 13Z" fill="white"/>
</g>
<defs>
<clipPath id="clip0_85_1057">
<rect width="24" height="24" fill="white" transform="translate(0.5)"/>
</clipPath>
</defs>
</svg>
