<svg width="65" height="64" viewBox="0 0 65 64" fill="none" xmlns="http://www.w3.org/2000/svg">
<g clip-path="url(#clip0_85_943)">
<path d="M45.8333 28.3866V22.28C42.7133 21.168 40.748 20.8586 39.7533 18.464C38.7587 16.064 39.94 14.432 41.3533 11.464L37.0387 7.14663C34.092 8.54663 32.444 9.74396 30.036 8.74663C27.636 7.75196 27.324 5.77063 26.22 2.66663H20.1133C19.0147 5.75463 18.7 7.75196 16.2973 8.74663H16.2947C13.8947 9.74396 12.268 8.55996 9.29467 7.14663L4.98267 11.464C6.388 14.424 7.57733 16.0613 6.58267 18.464C5.58267 20.8666 3.588 21.1813 0.5 22.28V28.384C3.58 29.4826 5.58533 29.8 6.58 32.2C7.58267 34.6213 6.364 36.2906 4.98 39.2L9.29467 43.5173C12.2467 42.1173 13.892 40.92 16.2947 41.9173H16.2973C18.6973 42.912 19.012 44.8986 20.1133 47.9973H26.2173C27.316 44.9093 27.6307 42.9173 30.0493 41.912H30.052C32.436 40.92 34.0547 42.1013 37.036 43.5173L41.3507 39.2C39.9507 36.248 38.7533 34.6053 39.748 32.2C40.7453 29.8026 42.7507 29.4826 45.8333 28.3866ZM23.1667 32.8906C18.996 32.8906 15.612 29.5066 15.612 25.3333C15.612 21.16 18.996 17.776 23.1667 17.776C27.3373 17.776 30.7213 21.16 30.7213 25.3333C30.7213 29.5066 27.3373 32.8906 23.1667 32.8906ZM64.5 44.104V41.232C63.0333 40.7093 62.108 40.5626 61.6387 39.4373C61.1693 38.3066 61.7267 37.5413 62.3907 36.1413L60.3587 34.1093C58.972 34.7706 58.196 35.3306 57.0653 34.864C55.9347 34.3973 55.788 33.464 55.268 32.0026H52.3987C51.8813 33.456 51.732 34.3946 50.6013 34.864C49.4707 35.3333 48.7053 34.776 47.308 34.1093L45.276 36.1413C45.9373 37.536 46.4973 38.3066 46.028 39.4373C45.5587 40.568 44.62 40.7146 43.1667 41.232V44.104C44.6173 44.6186 45.5587 44.7706 46.028 45.8986C46.5 47.0373 45.9267 47.824 45.276 49.1946L47.308 51.2266C48.6973 50.5653 49.4733 50.0053 50.6013 50.472C51.732 50.9386 51.8787 51.8746 52.3987 53.3333H55.268C55.7853 51.88 55.9347 50.9413 57.0707 50.4693H57.0733C58.196 50.0026 58.956 50.56 60.3587 51.2266L62.3907 49.1946C61.732 47.8053 61.1693 47.0293 61.6387 45.9013C62.108 44.7733 63.0493 44.6186 64.5 44.104ZM53.8333 46.2213C51.8707 46.2213 50.2787 44.6293 50.2787 42.6666C50.2787 40.704 51.8707 39.112 53.8333 39.112C55.796 39.112 57.388 40.704 57.388 42.6666C57.388 44.6293 55.796 46.2213 53.8333 46.2213ZM43.1667 54.4106V52.256C42.068 51.864 41.372 51.7546 41.02 50.9093C40.668 50.064 41.084 49.488 41.5853 48.4373L40.06 46.9146C39.0227 47.4106 38.4413 47.832 37.5907 47.48C36.74 47.128 36.6333 46.4293 36.2413 45.3333H34.0893C33.7 46.424 33.588 47.128 32.74 47.48C31.8947 47.832 31.3187 47.416 30.2707 46.9146L28.7453 48.4373C29.244 49.4853 29.6627 50.0613 29.3107 50.9093C28.9587 51.7573 28.2547 51.8666 27.164 52.256V54.4106C28.252 54.7973 28.9587 54.912 29.3107 55.7573C29.6653 56.6106 29.236 57.2026 28.7453 58.2293L30.2707 59.752C31.3107 59.256 31.892 58.8346 32.74 59.1866C33.588 59.5386 33.6973 60.24 34.0893 61.3333H36.2413C36.6307 60.2426 36.7427 59.5386 37.5933 59.1866H37.596C38.436 58.8373 39.0067 59.2533 40.06 59.7546L41.5853 58.232C41.0893 57.1893 40.668 56.608 41.02 55.76C41.372 54.912 42.0787 54.7973 43.1667 54.4106V54.4106ZM35.1667 56C33.6947 56 32.5 54.808 32.5 53.3333C32.5 51.8586 33.6947 50.6666 35.1667 50.6666C36.6387 50.6666 37.8333 51.8586 37.8333 53.3333C37.8333 54.808 36.6387 56 35.1667 56Z" fill="url(#paint0_linear_85_943)"/>
</g>
<defs>
<linearGradient id="paint0_linear_85_943" x1="0.5" y1="31.9999" x2="64.5" y2="31.9999" gradientUnits="userSpaceOnUse">
<stop stop-color="#79ACE6"/>
<stop offset="1" stop-color="#79E684"/>
<stop offset="1" stop-color="#79E684"/>
</linearGradient>
<clipPath id="clip0_85_943">
<rect width="64" height="64" fill="white" transform="translate(0.5)"/>
</clipPath>
</defs>
</svg>
