<svg
  width="20"
  height="20"
  viewBox="0 0 20 20"
  fill="none"
  xmlns="http://www.w3.org/2000/svg"
>
  <g clip-path="url(#clip0_61_1173)">
    <path
      d="M14.1667 8.87087V6.96254C13.1917 6.61504 12.5775 6.51837 12.2667 5.77004C11.9558 5.02004 12.325 4.51004 12.7667 3.58254L11.4183 2.23337C10.4975 2.67087 9.9825 3.04504 9.23 2.73337C8.48 2.42254 8.3825 1.80337 8.0375 0.833374H6.12917C5.78583 1.79837 5.6875 2.42254 4.93667 2.73337H4.93583C4.18583 3.04504 3.6775 2.67504 2.74833 2.23337L1.40083 3.58254C1.84 4.50754 2.21167 5.01921 1.90083 5.77004C1.58833 6.52087 0.965 6.61921 0 6.96254V8.87004C0.9625 9.21337 1.58917 9.31254 1.9 10.0625C2.21333 10.8192 1.8325 11.3409 1.4 12.25L2.74833 13.5992C3.67083 13.1617 4.185 12.7875 4.93583 13.0992H4.93667C5.68667 13.41 5.785 14.0309 6.12917 14.9992H8.03667C8.38 14.0342 8.47833 13.4117 9.23417 13.0975H9.235C9.98 12.7875 10.4858 13.1567 11.4175 13.5992L12.7658 12.25C12.3283 11.3275 11.9542 10.8142 12.265 10.0625C12.5767 9.31337 13.2033 9.21337 14.1667 8.87087ZM7.08333 10.2784C5.78 10.2784 4.7225 9.22087 4.7225 7.91671C4.7225 6.61254 5.78 5.55504 7.08333 5.55504C8.38667 5.55504 9.44417 6.61254 9.44417 7.91671C9.44417 9.22087 8.38667 10.2784 7.08333 10.2784ZM20 13.7825V12.885C19.5417 12.7217 19.2525 12.6759 19.1058 12.3242C18.9592 11.9709 19.1333 11.7317 19.3408 11.2942L18.7058 10.6592C18.2725 10.8659 18.03 11.0409 17.6767 10.895C17.3233 10.7492 17.2775 10.4575 17.115 10.0009H16.2183C16.0567 10.455 16.01 10.7484 15.6567 10.895C15.3033 11.0417 15.0642 10.8675 14.6275 10.6592L13.9925 11.2942C14.1992 11.73 14.3742 11.9709 14.2275 12.3242C14.0808 12.6775 13.7875 12.7234 13.3333 12.885V13.7825C13.7867 13.9434 14.0808 13.9909 14.2275 14.3434C14.375 14.6992 14.1958 14.945 13.9925 15.3734L14.6275 16.0084C15.0617 15.8017 15.3042 15.6267 15.6567 15.7725C16.01 15.9184 16.0558 16.2109 16.2183 16.6667H17.115C17.2767 16.2125 17.3233 15.9192 17.6783 15.7717H17.6792C18.03 15.6259 18.2675 15.8 18.7058 16.0084L19.3408 15.3734C19.135 14.9392 18.9592 14.6967 19.1058 14.3442C19.2525 13.9917 19.5467 13.9434 20 13.7825ZM16.6667 14.4442C16.0533 14.4442 15.5558 13.9467 15.5558 13.3334C15.5558 12.72 16.0533 12.2225 16.6667 12.2225C17.28 12.2225 17.7775 12.72 17.7775 13.3334C17.7775 13.9467 17.28 14.4442 16.6667 14.4442ZM13.3333 17.0034V16.33C12.99 16.2075 12.7725 16.1734 12.6625 15.9092C12.5525 15.645 12.6825 15.465 12.8392 15.1367L12.3625 14.6609C12.0383 14.8159 11.8567 14.9475 11.5908 14.8375C11.325 14.7275 11.2917 14.5092 11.1692 14.1667H10.4967C10.375 14.5075 10.34 14.7275 10.075 14.8375C9.81083 14.9475 9.63083 14.8175 9.30333 14.6609L8.82667 15.1367C8.9825 15.4642 9.11333 15.6442 9.00333 15.9092C8.89333 16.1742 8.67333 16.2084 8.3325 16.33V17.0034C8.6725 17.1242 8.89333 17.16 9.00333 17.4242C9.11417 17.6909 8.98 17.8759 8.82667 18.1967L9.30333 18.6725C9.62833 18.5175 9.81 18.3859 10.075 18.4959C10.34 18.6059 10.3742 18.825 10.4967 19.1667H11.1692C11.2908 18.8259 11.3258 18.6059 11.5917 18.4959H11.5925C11.855 18.3867 12.0333 18.5167 12.3625 18.6734L12.8392 18.1975C12.6842 17.8717 12.5525 17.69 12.6625 17.425C12.7725 17.16 12.9933 17.1242 13.3333 17.0034V17.0034ZM10.8333 17.5C10.3733 17.5 10 17.1275 10 16.6667C10 16.2059 10.3733 15.8334 10.8333 15.8334C11.2933 15.8334 11.6667 16.2059 11.6667 16.6667C11.6667 17.1275 11.2933 17.5 10.8333 17.5Z"
      fill="white"
    />
  </g>
  <defs>
    <clipPath id="clip0_61_1173">
      <rect width="20" height="20" fill="white" />
    </clipPath>
  </defs>
</svg>
