<svg width="65" height="64" viewBox="0 0 65 64" fill="none" xmlns="http://www.w3.org/2000/svg">
<path d="M33.5022 43.86L28.0556 49.7778H23.6111V54.2223H19.1667V58.6667H5.83333V47.5556L21.0889 32.1134C23.4889 37.5 27.9667 41.7489 33.5022 43.86ZM59.1667 23.1112C59.1667 32.9289 51.2067 40.8889 41.3889 40.8889C31.5711 40.8889 23.6111 32.9289 23.6111 23.1112C23.6111 13.2934 31.5711 5.33337 41.3889 5.33337C51.2067 5.33337 59.1667 13.2934 59.1667 23.1112ZM52.5 16.4445C52.5 13.9912 50.5089 12 48.0556 12C45.6022 12 43.6111 13.9912 43.6111 16.4445C43.6111 18.8978 45.6022 20.8889 48.0556 20.8889C50.5089 20.8889 52.5 18.8978 52.5 16.4445Z" fill="url(#paint0_linear_85_964)"/>
<defs>
<linearGradient id="paint0_linear_85_964" x1="5.83333" y1="32" x2="59.1667" y2="32" gradientUnits="userSpaceOnUse">
<stop stop-color="#79ACE6"/>
<stop offset="1" stop-color="#79E684"/>
<stop offset="1" stop-color="#79E684"/>
</linearGradient>
</defs>
</svg>
