<svg width="85" height="24" viewBox="0 0 85 24" fill="none" xmlns="http://www.w3.org/2000/svg">
<g clip-path="url(#clip0_43_2949)">
<path fill-rule="evenodd" clip-rule="evenodd" d="M8.43508 20.0581C7.04434 19.2909 5.69408 18.3687 4.45229 17.2598C-1.65692 11.8047 0.297563 0.239078 0.297563 0.239078L0.328483 0.232605C0.961519 0.10535 11.2133 -1.83942 17.9679 4.37049C25.7732 11.5486 24.0198 23.0899 23.9016 23.8029L23.8967 23.8378L23.8627 23.8384C23.5211 23.8428 20.6409 23.8546 16.9171 23.0877C18.7596 22.0633 20.0078 20.0965 20.0078 17.8407C20.0078 14.5302 17.3203 11.8424 14.0094 11.8424C10.6985 11.8424 8.01089 14.5302 8.01089 17.8407C8.01089 18.6237 8.16146 19.3718 8.43508 20.0581Z" fill="url(#paint0_linear_43_2949)"/>
<path d="M41.1036 4.82471H43.8714L49.0313 18.8614H46.224L44.9192 15.3621H40.0162L38.7312 18.8614H35.9238L41.1036 4.82471ZM44.4249 13.4444L42.4875 7.65181L40.4709 13.4444H44.4249Z" fill="white"/>
<path d="M52.5439 18.8614V4.82471H58.7517C59.4041 4.82471 59.9972 4.9631 60.5508 5.22011C61.0846 5.47712 61.5591 5.83298 61.9742 6.28769C62.3696 6.7424 62.6859 7.23664 62.9034 7.7902C63.1011 8.34376 63.2197 8.91709 63.2197 9.49042C63.2197 10.0835 63.1209 10.6569 62.9232 11.1906C62.7057 11.7442 62.4092 12.2187 62.0335 12.6338C61.6579 13.049 61.2032 13.3653 60.6892 13.5828L63.8919 18.8614H60.8869L58.0005 14.1561H55.2722V18.8614H52.5439ZM55.2722 11.764H58.6924C59.0285 11.764 59.3448 11.6651 59.6018 11.4477C59.8588 11.25 60.0763 10.9732 60.2345 10.6371C60.3926 10.301 60.4717 9.90559 60.4717 9.49042C60.4717 9.03571 60.3729 8.64031 60.1949 8.30422C60.017 7.96813 59.7798 7.71112 59.503 7.51342C59.2064 7.31572 58.9099 7.21687 58.5738 7.21687H55.2722V11.764Z" fill="white"/>
<path d="M78.1655 7.21687H73.6777V18.8614H70.9692V7.21687H66.4814V4.82471H78.1655V7.21687Z" fill="white"/>
<path d="M84.614 4.82471H81.8857V18.8614H84.614V4.82471Z" fill="white"/>
</g>
<defs>
<linearGradient id="paint0_linear_43_2949" x1="-1.39582e-05" y1="11.8424" x2="24.1507" y2="11.8424" gradientUnits="userSpaceOnUse">
<stop stop-color="#79AEE3"/>
<stop offset="1" stop-color="#79E28A"/>
</linearGradient>
<clipPath id="clip0_43_2949">
<rect width="84.6748" height="24" fill="white"/>
</clipPath>
</defs>
</svg>
