<?xml version="1.0" encoding="UTF-8" standalone="no"?>
<!DOCTYPE svg PUBLIC "-//W3C//DTD SVG 1.1//EN" "http://www.w3.org/Graphics/SVG/1.1/DTD/svg11.dtd">
<svg width="100%" height="100%" viewBox="0 0 34 32" version="1.1" xmlns="http://www.w3.org/2000/svg" xmlns:xlink="http://www.w3.org/1999/xlink" xml:space="preserve" style="fill-rule:evenodd;clip-rule:evenodd;stroke-linejoin:round;stroke-miterlimit:2;">
    <g transform="matrix(1,0,0,1,-1,-1)">
        <path d="M24.73,28.87L32.22,30.93L34.36,23.65L32.05,16.52L33.57,14.75L32.91,14.27L33.96,13.31L33.16,12.69L34.21,11.89L33.51,11.35L33.52,11.35L34.62,6L32.96,1L20.407,10.291L20.403,10.288L32.96,1L22.27,4.99L13.35,4.99L13.397,5.118L13.35,5L2.66,1L1,5.99L2.12,11.35L1.4,11.88L2.47,12.68L1.67,13.31L2.71,14.27L2.05,14.75L3.57,16.52L1.27,23.65L3.4,30.93L10.87,28.87L11.499,23.7L11.5,23.7L15.36,26.7L15.98,26.27L19.64,26.27L15.98,26.27L15.36,26.71L10.87,28.87L12.33,30.07L15.28,32.1L20.33,32.1L23.29,30.06L24.73,28.87ZM20.6,30.835L20.59,30.84L20.6,30.84L20.6,30.835ZM10.87,28.87L15.36,26.71L11.5,23.71L10.87,28.87ZM20.27,26.71L24.73,28.87L20.278,26.704L20.27,26.71ZM24.12,23.708L24.121,23.707L24.12,23.702L24.12,23.708ZM27.209,17.671L24.206,23.533L24.215,23.533L27.23,17.65L27.209,17.671ZM11.4,20.7L14.02,19.5L15.104,21.768L14.02,19.5L11.4,20.7ZM11.4,20.703L13.25,21.24L11.4,20.7L11.4,20.703ZM24.24,20.69L22.375,21.24L24.24,20.7L25.718,19.188L24.24,20.69ZM25.15,14.52L27.22,17.65L19.822,17.99L20.387,21.1L19.83,17.99L27.22,17.65L27.22,17.65L27.22,17.65L27.23,17.65L25.15,14.52L32.05,16.52L25.15,14.51L24.954,14.345L25.15,14.52ZM15.8,17.982L15.673,18.68L15.8,17.99L15.8,17.982ZM15.79,17.98L15.799,17.98L15.78,17.646L15.79,17.98Z" style="fill:url(#_Linear1);fill-rule:nonzero;"/>
    </g>
    <defs>
        <linearGradient id="_Linear1" x1="0" y1="0" x2="1" y2="0" gradientUnits="userSpaceOnUse" gradientTransform="matrix(33.62,0,0,33.62,1,16.55)"><stop offset="0" style="stop-color:rgb(121,172,230);stop-opacity:1"/><stop offset="1" style="stop-color:rgb(121,230,132);stop-opacity:1"/></linearGradient>
    </defs>
</svg>
