<svg width="21" height="20" viewBox="0 0 21 20" fill="none" xmlns="http://www.w3.org/2000/svg">
<g clip-path="url(#clip0_204_834)">
<path d="M11.75 1.66663C7.05917 1.66663 3.24 5.36329 3.02083 9.99996H0.5L4.28083 14.9308L8 9.99996H5.52083C5.7375 6.74829 8.44417 4.16663 11.75 4.16663C15.1967 4.16663 18 6.96996 18 10.4166C18 13.8633 15.1967 16.6666 11.75 16.6666C9.76583 16.6666 7.99833 15.7341 6.85333 14.2883L5.31417 16.3291C6.91333 18.0691 9.20083 19.1666 11.75 19.1666C16.5817 19.1666 20.5 15.2483 20.5 10.4166C20.5 5.58496 16.5817 1.66663 11.75 1.66663Z" fill="white"/>
</g>
<defs>
<clipPath id="clip0_204_834">
<rect width="20" height="20" fill="white" transform="translate(0.5)"/>
</clipPath>
</defs>
</svg>
