<svg width="20" height="21" viewBox="0 0 20 21" fill="none" xmlns="http://www.w3.org/2000/svg">
<path d="M11.25 2.16663C6.55917 2.16663 2.74 5.86329 2.52083 10.5H0L3.78083 15.4308L7.5 10.5H5.02083C5.2375 7.24829 7.94417 4.66663 11.25 4.66663C14.6967 4.66663 17.5 7.46996 17.5 10.9166C17.5 14.3633 14.6967 17.1666 11.25 17.1666C9.26583 17.1666 7.49833 16.2341 6.35333 14.7883L4.81417 16.8291C6.41333 18.5691 8.70083 19.6666 11.25 19.6666C16.0817 19.6666 20 15.7483 20 10.9166C20 6.08496 16.0817 2.16663 11.25 2.16663Z" fill="url(#paint0_linear_137_115)"/>
<defs>
<linearGradient id="paint0_linear_137_115" x1="5.58797e-09" y1="10.9166" x2="20" y2="10.9166" gradientUnits="userSpaceOnUse">
<stop stop-color="#79ACE6"/>
<stop offset="1" stop-color="#79E684"/>
<stop offset="1" stop-color="#79E684"/>
</linearGradient>
</defs>
</svg>
