<?xml version="1.0" standalone="no"?>
<!DOCTYPE svg PUBLIC "-//W3C//DTD SVG 20010904//EN"
 "http://www.w3.org/TR/2001/REC-SVG-20010904/DTD/svg10.dtd">
<svg version="1.0" xmlns="http://www.w3.org/2000/svg"
 width="600.000000pt" height="600.000000pt" viewBox="0 0 600.000000 600.000000"
 preserveAspectRatio="xMidYMid meet">
<metadata>
Created by potrace 1.14, written by Peter Selinger 2001-2017
</metadata>
<g transform="translate(0.000000,600.000000) scale(0.100000,-0.100000)"
fill="#000000" stroke="none">
<path d="M878 5975 c-1 -1 -55 -6 -119 -9 -65 -4 -125 -8 -135 -10 -11 -2 -59
-7 -108 -11 -50 -4 -97 -8 -105 -10 -17 -3 -110 -16 -151 -21 -54 -6 -149 -23
-172 -30 -10 -3 -19 -16 -19 -30 -1 -13 -2 -27 -3 -31 -2 -7 -11 -76 -22 -168
-10 -80 -19 -181 -31 -360 -15 -213 -7 -954 11 -1055 3 -14 7 -57 10 -97 3
-39 8 -86 10 -105 3 -18 8 -58 11 -88 7 -56 8 -63 19 -137 4 -23 9 -55 11 -70
2 -15 11 -64 20 -108 9 -44 19 -91 21 -104 6 -31 33 -152 38 -171 93 -352 175
-577 302 -833 56 -112 134 -253 156 -282 5 -5 29 -41 55 -80 26 -38 51 -74 55
-80 4 -5 38 -48 75 -95 129 -165 302 -333 511 -495 7 -5 18 -15 25 -20 17 -15
167 -127 194 -145 12 -8 49 -34 82 -58 33 -23 65 -42 70 -42 5 0 11 -4 13 -8
3 -9 181 -122 263 -168 28 -15 65 -35 83 -45 37 -21 37 -22 17 28 -16 41 -55
184 -60 217 -2 12 -6 37 -9 58 -21 114 -21 305 -1 439 3 21 8 51 10 66 5 38
33 144 44 168 5 11 15 38 22 60 13 44 75 176 115 244 71 123 214 292 319 376
20 17 43 36 50 43 8 6 18 12 24 12 6 0 11 4 11 8 0 9 126 92 140 92 4 0 10 3
12 8 3 7 134 69 203 95 200 77 422 105 666 84 227 -19 459 -102 664 -236 39
-25 75 -50 81 -56 7 -5 29 -24 51 -42 94 -76 200 -192 278 -303 75 -107 185
-341 201 -430 3 -14 9 -40 15 -57 6 -18 12 -45 14 -60 3 -16 6 -38 9 -51 17
-81 23 -274 11 -389 -13 -130 -49 -280 -92 -383 -35 -83 -89 -195 -95 -198 -5
-2 -8 -10 -8 -18 0 -8 -3 -14 -8 -14 -4 0 -13 -13 -20 -28 -6 -16 -21 -38 -32
-50 -11 -12 -20 -24 -20 -28 0 -18 -166 -196 -256 -273 -40 -35 -187 -137
-207 -144 -18 -7 -5 -14 33 -20 19 -3 60 -10 90 -17 30 -6 69 -13 85 -15 17
-3 41 -7 55 -10 29 -6 69 -12 120 -20 19 -2 44 -6 55 -9 28 -5 172 -26 215
-30 14 -2 48 -6 75 -10 323 -42 938 -79 972 -58 6 4 14 34 18 67 27 235 31
280 41 440 14 209 6 851 -11 945 -3 14 -8 63 -11 109 -3 47 -10 95 -15 108 -6
18 -6 22 3 17 6 -4 9 -3 5 2 -3 5 -8 30 -12 54 -10 76 -54 354 -59 379 -3 14
-15 70 -26 125 -43 212 -138 560 -187 686 -4 8 -7 18 -8 23 -2 4 -4 9 -5 12
-1 3 -3 8 -5 13 -2 9 -8 25 -46 122 -16 41 -29 81 -29 88 0 6 -3 12 -8 12 -4
0 -13 18 -19 39 -12 37 -142 319 -162 351 -6 8 -20 35 -33 60 -37 74 -102 185
-110 188 -4 2 -8 8 -8 13 0 8 -118 198 -130 209 -3 3 -23 32 -45 65 -22 33
-42 62 -45 65 -3 3 -28 34 -55 70 -57 73 -72 93 -98 123 -10 12 -37 44 -60 72
-67 80 -341 355 -414 415 -36 30 -71 60 -77 65 -6 6 -31 26 -56 45 -25 19 -47
37 -50 40 -3 3 -21 17 -40 30 -19 13 -37 27 -40 30 -13 13 -160 110 -168 110
-5 0 -15 7 -22 15 -10 12 -47 35 -145 91 -11 6 -38 21 -60 34 -43 24 -217 114
-225 115 -3 1 -36 16 -75 34 -274 129 -734 275 -1025 327 -14 3 -50 9 -80 15
-30 6 -64 12 -75 13 -11 2 -33 6 -50 9 -16 3 -50 9 -75 12 -25 3 -54 7 -65 9
-11 2 -49 7 -85 11 -36 3 -78 8 -95 10 -16 3 -66 7 -110 10 -44 4 -91 9 -105
12 -27 5 -756 14 -762 8z"/>
</g>
</svg>
